<svg xmlns="http://www.w3.org/2000/svg" width="347.954" height="184" viewBox="0 0 347.954 184">
  <g id="bus" transform="translate(-0.001)">
    <g id="g12" transform="translate(0.001)">
      <path id="path14" d="M422.884-1685.055a3.758,3.758,0,0,0,3.759,3.758,3.759,3.759,0,0,0,3.759-3.758v-19.916a3.759,3.759,0,0,0-3.759-3.758,3.758,3.758,0,0,0-3.759,3.758v19.916" transform="translate(-82.447 1738.523)" fill="#151413"/>
      <path id="path16" d="M452.174-1695.206c2.091,0,3.786-1.056,3.786-2.362s-1.695-2.361-3.786-2.361H432.118c-2.09,0-3.786,1.058-3.786,2.361s1.7,2.362,3.786,2.362h20.056" transform="translate(-108.871 1731.12)" fill="#151413"/>
      <path id="path18" d="M896.029-1873.7c0,2.6,2.969,4.721,6.632,4.721h62.13c3.662,0,6.633-2.116,6.633-4.721l-3.327-18.039c0-2.607-2.969-4.721-6.633-4.721h-58.8c-3.664,0-6.632,2.114-6.632,4.721v18.039" transform="translate(-698.56 1896.462)" fill="#1e416e"/>
      <path id="path20" d="M1081.748-1873.7c0,2.6,2.971,4.721,6.634,4.721h62.128c3.663,0,6.632-2.116,6.632-4.721l-3.326-18.039c0-2.607-2.97-4.721-6.634-4.721h-58.8c-3.663,0-6.634,2.114-6.634,4.721v18.039" transform="translate(-913.754 1896.462)" fill="#3871c1"/>
      <path id="path22" d="M1886.715-1873.7a4.723,4.723,0,0,0,4.721,4.721h44.224a4.725,4.725,0,0,0,4.723-4.721l-2.368-18.039a4.722,4.722,0,0,0-4.723-4.721h-41.856a4.721,4.721,0,0,0-4.721,4.721v18.039" transform="translate(-1824.746 1896.462)" fill="#1e416e"/>
      <path id="path24" d="M624.566-1011.066c.336-18.331,13.664-33.078,30.069-33.078s29.735,14.747,30.07,33.078H624.566" transform="translate(-368.759 1179.411)" fill="#151413"/>
      <path id="path26" d="M661.04-1008.158h10.281c10.963,0,19.851,9.63,19.851,21.51s-8.888,21.512-19.851,21.512c-.549,0-10.281-.078-10.281-.078v-42.943" transform="translate(-381.015 1149.136)" fill="#222122"/>
      <path id="path28" d="M715.16-986.648c0,11.882,8.887,21.512,19.849,21.512s19.852-9.63,19.852-21.512-8.888-21.51-19.852-21.51-19.849,9.63-19.849,21.51" transform="translate(-453.292 1149.136)" fill="#2f3132"/>
      <path id="path30" d="M755.014-950.326c0,8.094,6.057,14.658,13.526,14.658s13.526-6.564,13.526-14.658-6.054-14.658-13.526-14.658-13.526,6.562-13.526,14.658" transform="translate(-486.823 1112.815)" fill="#e9e9e7"/>
      <path id="path32" d="M832.328-939.556h0a1.558,1.558,0,0,0,1.493-1.617v-7.806a1.56,1.56,0,0,0-1.493-1.619,1.559,1.559,0,0,0-1.491,1.619s.667,9.423,1.491,9.423" transform="translate(-550.611 1100.711)" fill="#2f3132"/>
      <path id="path34" d="M831.757-944.466h0a1.669,1.669,0,0,0,1.6-1.731v-8.361a1.671,1.671,0,0,0-1.6-1.733,1.671,1.671,0,0,0-1.6,1.733s.716,10.091,1.6,10.091" transform="translate(-550.04 1105.501)" fill="#2f3132"/>
      <path id="path36" d="M831.757-858.665h0a1.671,1.671,0,0,0-1.6,1.733v8.361a1.67,1.67,0,0,0,1.6,1.731,1.671,1.671,0,0,0,1.6-1.731s-.717-10.094-1.6-10.094" transform="translate(-550.04 1023.368)" fill="#2f3132"/>
      <path id="path38" d="M861.817-879.414h0a1.67,1.67,0,0,0-1.6-1.731h-7.71a1.672,1.672,0,0,0-1.6,1.731,1.671,1.671,0,0,0,1.6,1.735s9.31-.774,9.31-1.735" transform="translate(-581.792 1042.28)" fill="#2f3132"/>
      <path id="path40" d="M760.81-879.414h0a1.671,1.671,0,0,0,1.6,1.735h7.71a1.671,1.671,0,0,0,1.6-1.735,1.671,1.671,0,0,0-1.6-1.731s-9.311.777-9.311,1.731" transform="translate(-477.399 1042.28)" fill="#2f3132"/>
      <path id="path42" d="M853.008-925.409h0a1.836,1.836,0,0,0,0-2.45l-5.455-5.91a1.512,1.512,0,0,0-2.261,0,1.841,1.841,0,0,0,0,2.45s7.09,6.585,7.715,5.91" transform="translate(-572.487 1086.981)" fill="#2f3132"/>
      <path id="path44" d="M781.6-862.31h0a1.837,1.837,0,0,0,0,2.453l5.454,5.91a1.515,1.515,0,0,0,2.261,0,1.84,1.84,0,0,0,0-2.453s-7.09-6.587-7.714-5.91" transform="translate(-498.686 1026.476)" fill="#2f3132"/>
      <path id="path46" d="M855.677-864.743h0a1.513,1.513,0,0,0-2.261,0l-5.454,5.91a1.844,1.844,0,0,0,0,2.453,1.512,1.512,0,0,0,2.261,0s6.079-7.686,5.455-8.363" transform="translate(-575.156 1028.91)" fill="#2f3132"/>
      <path id="path48" d="M781.177-925.409h0a1.516,1.516,0,0,0,2.262,0l5.453-5.91a1.837,1.837,0,0,0,0-2.45,1.512,1.512,0,0,0-2.261,0s-6.08,7.683-5.454,8.361" transform="translate(-498.262 1086.981)" fill="#2f3132"/>
      <path id="path50" d="M1575.423-1011.066c.334-18.331,13.664-33.078,30.067-33.078s29.733,14.747,30.069,33.078h-60.136" transform="translate(-1470.519 1179.411)" fill="#151413"/>
      <path id="path52" d="M1611.9-1008.158h10.282c10.963,0,19.849,9.63,19.849,21.51s-8.885,21.512-19.849,21.512c-.55,0-10.282-.078-10.282-.078v-42.943" transform="translate(-1482.783 1149.136)" fill="#222122"/>
      <path id="path54" d="M1666.023-986.648c0,11.882,8.887,21.512,19.851,21.512s19.849-9.63,19.849-21.512-8.885-21.51-19.849-21.51-19.851,9.63-19.851,21.51" transform="translate(-1555.06 1149.136)" fill="#2f3132"/>
      <path id="path56" d="M1705.862-950.326c0,8.094,6.054,14.658,13.524,14.658s13.526-6.564,13.526-14.658-6.054-14.658-13.526-14.658-13.524,6.562-13.524,14.658" transform="translate(-1588.573 1112.815)" fill="#e9e9e7"/>
      <path id="path58" d="M1783.17-939.556h0a1.559,1.559,0,0,0,1.494-1.617v-7.806a1.561,1.561,0,0,0-1.494-1.619,1.562,1.562,0,0,0-1.494,1.619s.671,9.423,1.494,9.423" transform="translate(-1652.357 1100.711)" fill="#2f3132"/>
      <path id="path60" d="M1782.609-944.466h0a1.668,1.668,0,0,0,1.6-1.731v-8.361a1.67,1.67,0,0,0-1.6-1.733,1.67,1.67,0,0,0-1.6,1.733s.715,10.091,1.6,10.091" transform="translate(-1651.796 1105.501)" fill="#2f3132"/>
      <path id="path62" d="M1782.609-858.665h0a1.67,1.67,0,0,0-1.6,1.733v8.361a1.67,1.67,0,0,0,1.6,1.731,1.67,1.67,0,0,0,1.6-1.731s-.715-10.094-1.6-10.094" transform="translate(-1651.796 1023.368)" fill="#2f3132"/>
      <path id="path64" d="M1812.666-879.414h0a1.671,1.671,0,0,0-1.6-1.731h-7.713a1.669,1.669,0,0,0-1.6,1.731,1.669,1.669,0,0,0,1.6,1.735s9.313-.774,9.313-1.735" transform="translate(-1683.546 1042.28)" fill="#2f3132"/>
      <path id="path66" d="M1711.676-879.414h0a1.668,1.668,0,0,0,1.6,1.735h7.715a1.669,1.669,0,0,0,1.6-1.735,1.669,1.669,0,0,0-1.6-1.731s-9.311.777-9.311,1.731" transform="translate(-1579.168 1042.28)" fill="#2f3132"/>
      <path id="path68" d="M1803.859-925.409h0a1.833,1.833,0,0,0,0-2.45l-5.453-5.91a1.513,1.513,0,0,0-2.262,0,1.837,1.837,0,0,0,0,2.45s7.091,6.585,7.715,5.91" transform="translate(-1674.244 1086.981)" fill="#2f3132"/>
      <path id="path70" d="M1732.451-862.31h0a1.84,1.84,0,0,0,0,2.453l5.453,5.91a1.514,1.514,0,0,0,2.26,0,1.835,1.835,0,0,0,0-2.453s-7.089-6.587-7.713-5.91" transform="translate(-1600.44 1026.476)" fill="#2f3132"/>
      <path id="path72" d="M1806.534-864.743h0a1.511,1.511,0,0,0-2.26,0l-5.455,5.91a1.84,1.84,0,0,0,0,2.453,1.513,1.513,0,0,0,2.262,0s6.079-7.686,5.453-8.363" transform="translate(-1676.919 1028.91)" fill="#2f3132"/>
      <path id="path74" d="M1732.027-925.409h0a1.514,1.514,0,0,0,2.26,0l5.453-5.91a1.833,1.833,0,0,0,0-2.45,1.511,1.511,0,0,0-2.26,0s-6.077,7.683-5.453,8.361" transform="translate(-1600.017 1086.981)" fill="#2f3132"/>
      <path id="path76" d="M458.452-1676.656a26.4,26.4,0,0,0,26.4,26.4h247.28a26.4,26.4,0,0,0,26.4-26.4l-13.24-100.86a26.4,26.4,0,0,0-26.4-26.4H484.852a26.4,26.4,0,0,0-26.4,26.4v100.86" transform="translate(-416.222 1818.603)" fill="#1e416e"/>
      <path id="path78" d="M490.821-1624.141v-69.974a26.292,26.292,0,0,1,2.251-10.667H775.409a26.278,26.278,0,0,1,2.252,10.667l8.1,69.974H490.821" transform="translate(-448.591 1735.203)" fill="#151413"/>
      <path id="path80" d="M724.545-1676.656a26.4,26.4,0,0,0,26.4,26.4H998.224a26.4,26.4,0,0,0,26.4-26.4l-13.241-100.86a26.4,26.4,0,0,0-26.4-26.4H750.945a26.4,26.4,0,0,0-26.4,26.4v100.86" transform="translate(-724.545 1818.603)" fill="#3871c1"/>
      <path id="path82" d="M2018.915-1873.7a4.722,4.722,0,0,0,4.719,4.721h44.226a4.723,4.723,0,0,0,4.721-4.721l-2.368-18.039a4.722,4.722,0,0,0-4.723-4.721h-41.856a4.721,4.721,0,0,0-4.719,4.721v18.039" transform="translate(-1977.925 1896.462)" fill="#3871c1"/>
      <path id="path84" d="M1036.962-926.678a26.392,26.392,0,0,1-23.531,14.436H766.151a26.391,26.391,0,0,1-23.533-14.436h294.343" transform="translate(-739.751 1080.587)" fill="#1e416e"/>
      <path id="path86" d="M1065.457-1626.835H820.5v-61.52c0-11.251,10.57-20.373,23.611-20.373h209.322c13.04,0,23.612,9.122,23.612,20.373l11.842,82.7c0,11.2-23.434-21.175-23.434-21.175" transform="translate(-804.04 1738.523)" fill="#151413"/>
      <path id="path88" d="M1040.607-1011.066c.334-18.331,13.663-33.078,30.068-33.078s29.735,14.747,30.069,33.078h-60.137" transform="translate(-850.825 1179.411)" fill="#151413"/>
      <path id="path90" d="M1077.081-1008.158h10.281c10.962,0,19.85,9.63,19.85,21.51s-8.888,21.512-19.85,21.512c-.55,0-10.281-.078-10.281-.078v-42.943" transform="translate(-863.083 1149.136)" fill="#222122"/>
      <path id="path92" d="M1131.2-986.648c0,11.882,8.888,21.512,19.849,21.512s19.852-9.63,19.852-21.512-8.888-21.51-19.852-21.51-19.849,9.63-19.849,21.51" transform="translate(-935.36 1149.136)" fill="#2f3132"/>
      <path id="path94" d="M1171.049-950.326c0,8.094,6.055,14.658,13.524,14.658s13.528-6.564,13.528-14.658-6.055-14.658-13.528-14.658-13.524,6.562-13.524,14.658" transform="translate(-968.885 1112.815)" fill="#e9e9e7"/>
      <path id="path96" d="M1248.362-939.556h0a1.558,1.558,0,0,0,1.495-1.617v-7.806a1.56,1.56,0,0,0-1.495-1.619,1.56,1.56,0,0,0-1.49,1.619s.668,9.423,1.49,9.423" transform="translate(-1032.674 1100.711)" fill="#2f3132"/>
      <path id="path98" d="M1247.791-944.466h0a1.67,1.67,0,0,0,1.6-1.731v-8.361a1.672,1.672,0,0,0-1.6-1.733,1.67,1.67,0,0,0-1.6,1.733s.716,10.091,1.6,10.091" transform="translate(-1032.102 1105.501)" fill="#2f3132"/>
      <path id="path100" d="M1247.791-858.665h0a1.67,1.67,0,0,0-1.6,1.733v8.361a1.669,1.669,0,0,0,1.6,1.731,1.671,1.671,0,0,0,1.6-1.731s-.717-10.094-1.6-10.094" transform="translate(-1032.102 1023.368)" fill="#2f3132"/>
      <path id="path102" d="M1277.853-879.414h0a1.671,1.671,0,0,0-1.6-1.731h-7.712a1.672,1.672,0,0,0-1.6,1.731,1.671,1.671,0,0,0,1.6,1.735s9.312-.774,9.312-1.735" transform="translate(-1063.855 1042.28)" fill="#2f3132"/>
      <path id="path104" d="M1176.857-879.414h0a1.67,1.67,0,0,0,1.6,1.735h7.711a1.669,1.669,0,0,0,1.6-1.735,1.669,1.669,0,0,0-1.6-1.731s-9.312.777-9.312,1.731" transform="translate(-959.474 1042.28)" fill="#2f3132"/>
      <path id="path106" d="M1269.049-925.409h0a1.838,1.838,0,0,0,0-2.45l-5.456-5.91a1.511,1.511,0,0,0-2.26,0,1.838,1.838,0,0,0,0,2.45s7.09,6.585,7.715,5.91" transform="translate(-1054.554 1086.981)" fill="#2f3132"/>
      <path id="path108" d="M1197.639-862.31h0a1.837,1.837,0,0,0,0,2.453l5.453,5.91a1.516,1.516,0,0,0,2.261,0,1.839,1.839,0,0,0,0-2.453s-7.09-6.587-7.715-5.91" transform="translate(-980.751 1026.476)" fill="#2f3132"/>
      <path id="path110" d="M1271.714-864.743h0a1.513,1.513,0,0,0-2.262,0l-5.454,5.91a1.84,1.84,0,0,0,0,2.453,1.511,1.511,0,0,0,2.26,0s6.08-7.686,5.456-8.363" transform="translate(-1057.22 1028.91)" fill="#2f3132"/>
      <path id="path112" d="M1197.214-925.409h0a1.516,1.516,0,0,0,2.262,0l5.453-5.91a1.836,1.836,0,0,0,0-2.45,1.513,1.513,0,0,0-2.261,0s-6.079,7.683-5.453,8.361" transform="translate(-980.327 1086.981)" fill="#2f3132"/>
      <path id="path114" d="M1991.462-1011.066c.336-18.331,13.664-33.078,30.067-33.078s29.735,14.747,30.069,33.078h-60.136" transform="translate(-1952.585 1179.411)" fill="#151413"/>
      <path id="path116" d="M2027.928-1008.158h10.282c10.963,0,19.851,9.63,19.851,21.51s-8.887,21.512-19.851,21.512c-.55,0-10.282-.078-10.282-.078v-42.943" transform="translate(-1964.836 1149.136)" fill="#222122"/>
      <path id="path118" d="M2082.062-986.648c0,11.882,8.887,21.512,19.849,21.512s19.851-9.63,19.851-21.512-8.885-21.51-19.851-21.51-19.849,9.63-19.849,21.51" transform="translate(-2037.127 1149.136)" fill="#2f3132"/>
      <path id="path120" d="M2121.9-950.326c0,8.094,6.056,14.658,13.524,14.658s13.528-6.564,13.528-14.658-6.054-14.658-13.528-14.658-13.524,6.562-13.524,14.658" transform="translate(-2070.642 1112.815)" fill="#e9e9e7"/>
      <path id="path122" d="M2199.206-939.556h0a1.559,1.559,0,0,0,1.5-1.617v-7.806a1.561,1.561,0,0,0-1.5-1.619,1.562,1.562,0,0,0-1.492,1.619s.671,9.423,1.492,9.423" transform="translate(-2134.423 1100.711)" fill="#2f3132"/>
      <path id="path124" d="M2198.645-944.466h0a1.668,1.668,0,0,0,1.6-1.731v-8.361a1.671,1.671,0,0,0-1.6-1.733,1.671,1.671,0,0,0-1.6,1.733s.717,10.091,1.6,10.091" transform="translate(-2133.862 1105.501)" fill="#2f3132"/>
      <path id="path126" d="M2198.645-858.665h0a1.671,1.671,0,0,0-1.6,1.733v8.361a1.671,1.671,0,0,0,1.6,1.731,1.67,1.67,0,0,0,1.6-1.731s-.715-10.094-1.6-10.094" transform="translate(-2133.862 1023.368)" fill="#2f3132"/>
      <path id="path128" d="M2228.705-879.414h0a1.671,1.671,0,0,0-1.6-1.731h-7.713a1.669,1.669,0,0,0-1.6,1.731,1.669,1.669,0,0,0,1.6,1.735s9.313-.774,9.313-1.735" transform="translate(-2165.613 1042.28)" fill="#2f3132"/>
      <path id="path130" d="M2127.715-879.414h0a1.669,1.669,0,0,0,1.6,1.735h7.713a1.669,1.669,0,0,0,1.6-1.735,1.669,1.669,0,0,0-1.6-1.731s-9.313.777-9.313,1.731" transform="translate(-2061.237 1042.28)" fill="#2f3132"/>
      <path id="path132" d="M2219.9-925.409h0a1.833,1.833,0,0,0,0-2.45l-5.453-5.91a1.513,1.513,0,0,0-2.262,0,1.837,1.837,0,0,0,0,2.45s7.091,6.585,7.715,5.91" transform="translate(-2156.31 1086.981)" fill="#2f3132"/>
      <path id="path134" d="M2148.493-862.31h0a1.84,1.84,0,0,0,0,2.453l5.453,5.91a1.514,1.514,0,0,0,2.26,0,1.84,1.84,0,0,0,0-2.453s-7.091-6.587-7.715-5.91" transform="translate(-2082.51 1026.476)" fill="#2f3132"/>
      <path id="path136" d="M2222.573-864.743h0a1.511,1.511,0,0,0-2.26,0l-5.455,5.91a1.84,1.84,0,0,0,0,2.453,1.514,1.514,0,0,0,2.262,0s6.079-7.686,5.453-8.363" transform="translate(-2158.985 1028.91)" fill="#2f3132"/>
      <path id="path138" d="M2148.063-925.409h0a1.517,1.517,0,0,0,2.262,0l5.453-5.91a1.837,1.837,0,0,0,0-2.45,1.513,1.513,0,0,0-2.262,0s-6.077,7.683-5.453,8.361" transform="translate(-2082.08 1086.981)" fill="#2f3132"/>
      <path id="path140" d="M637.865-1091.894c-.7,2.446,9.174,7.4,11.309,8.009l5.535,1.576c2.133.605,4.427-.887,5.124-3.337s-.467-4.926-2.6-5.531l-14.242-4.054c-2.133-.605-4.427.887-5.124,3.337" transform="translate(-346.193 1222.504)" fill="#ededed"/>
      <path id="path142" d="M638.12-1077.841c-.538,1.888,6.825,5.639,8.42,6.092l4.135,1.177a3.313,3.313,0,0,0,3.859-2.6,3.313,3.313,0,0,0-1.914-4.241l-10.641-3.028a3.311,3.311,0,0,0-3.859,2.6" transform="translate(-340.895 1210.029)" fill="#f08d3f"/>
      <path id="path144" d="M638.359-1057.132c.1-1.557.34-3.142.478-4.719l2.857.813a2.8,2.8,0,0,1,1.62,3.589,2.806,2.806,0,0,1-3.268,2.2l-1.8-.512c.041-.457.083-.91.114-1.371" transform="translate(-329.676 1194.308)" fill="#f4be3f"/>
      <path id="path146" d="M690.55-1073.333l2.987.849c-.078,1.985-.464,4.126-.692,5.853-2.3-1.1-5.915-3.271-5.564-4.5a2.8,2.8,0,0,1,3.268-2.2" transform="translate(-387.541 1204.037)" fill="#f4be3f"/>
      <path id="path148" d="M464.316-1027.9l2.549-.726.175,1.047-1.459.417a4.227,4.227,0,0,1-4.864-2.654,3.175,3.175,0,0,0,3.6,1.915" transform="translate(-125.09 1167.353)" fill="#ededed"/>
      <path id="path150" d="M471.319-1071.393a3.175,3.175,0,0,0-2.051,3.523,4.219,4.219,0,0,1,2.739-4.814l2.46-.7.174,1.047-3.321.944" transform="translate(-134.04 1204.011)" fill="#ededed"/>
      <path id="path152" d="M463.894-1065.84l3.321-.944,1.174,7.057-2.549.726a3.175,3.175,0,0,1-3.6-1.915,4.152,4.152,0,0,1-.261-.683,2.8,2.8,0,0,0,3.267,2.2l1.8-.512c-.042-.457-.084-.91-.114-1.371-.1-1.557-.341-3.142-.48-4.719l-2.857.813a2.8,2.8,0,0,0-1.62,3.589,4.121,4.121,0,0,1-.137-.717,3.175,3.175,0,0,1,2.051-3.523" transform="translate(-126.615 1198.458)" fill="#f08d3f"/>
      <path id="path154" d="M472.005-1061.038l2.857-.812c.139,1.576.38,3.161.48,4.719.03.461.072.914.114,1.371l-1.8.512a2.8,2.8,0,0,1-3.267-2.2,2.8,2.8,0,0,1,1.62-3.589" transform="translate(-135.019 1194.308)" fill="#f4be3f"/>
      <path id="path156" d="M1274.061-1133.945H1040.607v-1.132h233.455Z" transform="translate(-1024.143 1255.913)" fill="#151413"/>
      <path id="path158" d="M1495.811-1074.677h-1.134v-20.693h1.134Z" transform="translate(-1317.955 1222.508)" fill="#151413"/>
      <path id="path160" d="M1913.727-1079.658H1912.6v-23.272h1.132Z" transform="translate(-1802.198 1228.868)" fill="#151413"/>
    </g>
  </g>
</svg>
