<svg xmlns="http://www.w3.org/2000/svg" width="53.052" height="70" viewBox="0 0 53.052 70">
  <path id="coupon" d="M70,13.263V4.421A4.4,4.4,0,0,0,65.625,0H4.375A4.4,4.4,0,0,0,0,4.421v8.842A13.194,13.194,0,0,1,13.125,26.526,13.2,13.2,0,0,1,0,39.789v8.842a4.4,4.4,0,0,0,4.375,4.421h61.25A4.4,4.4,0,0,0,70,48.631V39.789a13.264,13.264,0,0,1,0-26.526ZM30.25,48.631H25.875V39.789H30.25Zm0-17.684H25.875V22.105H30.25Zm0-17.684H25.875V4.421H30.25Z" transform="translate(0 70) rotate(-90)" fill="#fff"/>
</svg>
