<svg id="gift" xmlns="http://www.w3.org/2000/svg" width="16" height="16" viewBox="0 0 16 16">
  <path id="Path_1824" data-name="Path 1824" d="M15.754,133.909l7.5,3.75,7.5-3.75v8l-7.5,3.75-7.5-3.75Z" transform="translate(-15.254 -129.659)" fill="#db5449"/>
  <path id="Path_1825" data-name="Path 1825" d="M15.754,157.538v2.337l7.475,3.663,7.525-3.675v-2.325l-7.5,3.675Z" transform="translate(-15.254 -152.538)" fill="#c54b42"/>
  <path id="Path_1826" data-name="Path 1826" d="M23.254,153.286v-8l-7-3.5h-.5v7.75Z" transform="translate(-15.254 -137.286)" fill="#d05045"/>
  <path id="Path_1827" data-name="Path 1827" d="M15.754,157.538v2.337l7.475,3.663.025-.013v-2.312Z" transform="translate(-15.254 -152.538)" fill="#bb483e"/>
  <path id="Path_1828" data-name="Path 1828" d="M0,3.988,8,0l8,3.987v.525L8,8.5,0,4.526Z" transform="translate(0 -0.001)" fill="#eb6258"/>
  <path id="Path_1829" data-name="Path 1829" d="M111.736,16.517a1.647,1.647,0,0,0-1.488-.763c-1.512,0-2.575,1.413-3.1,2.313-.525-.9-1.6-2.3-3.1-2.3a1.484,1.484,0,0,0-1.65,1.387c0,1.425,1.563,2.35,4.7,2.35s4.8-1.187,4.8-2.337A1.32,1.32,0,0,0,111.736,16.517Zm-7.362,1.538a.911.911,0,0,1-.475-.675c0-.212.2-.375.488-.375.675,0,1.212.887,1.512,1.5A3.227,3.227,0,0,1,104.374,18.054Zm5.55,0a3.227,3.227,0,0,1-1.525.45c.287-.612.825-1.5,1.512-1.5.287,0,.487.163.487.375A.911.911,0,0,1,109.924,18.054Z" transform="translate(-99.149 -15.254)" fill="#efefef"/>
  <path id="Path_1830" data-name="Path 1830" d="M0,126.032l8,3.912,8-3.912v2.587l-8.025,3.912L0,128.619Z" transform="translate(0 -122.032)" fill="#e2574c"/>
  <path id="Path_1831" data-name="Path 1831" d="M102.524,96.023v-.287l-3-1.625-3,1.625v.287l-2-.875v-.4l4.9-2.587.1.05.1-.05,4.9,2.575v.4Z" transform="translate(-91.524 -89.236)" fill="#efefef"/>
  <path id="Path_1832" data-name="Path 1832" d="M346.585,174.293v7.987l2-1v-7.988Z" transform="translate(-335.585 -167.793)" fill="#dcdcdc"/>
  <path id="Path_1833" data-name="Path 1833" d="M94.523,181.293l2,1v-7.987l-2-1.013Z" transform="translate(-91.523 -167.793)" fill="#d1d1d1"/>
</svg>
