<svg id="gift_1_" data-name="gift (1)" xmlns="http://www.w3.org/2000/svg" width="16" height="15" viewBox="0 0 16 15">
  <path id="Path_1834" data-name="Path 1834" d="M120.376,17.34c-.477-.891-1.047-1.343-1.7-1.343-.748,0-1.524.611-2.308,1.816-.1.154-.194.309-.281.458-.087-.149-.181-.3-.281-.458C115.024,16.608,114.248,16,113.5,16c-.649,0-1.22.452-1.7,1.343a1.381,1.381,0,0,0-.057,1.43,2.907,2.907,0,0,0,2.1,1.055,13.3,13.3,0,0,0,2.206.174h.077a13.3,13.3,0,0,0,2.206-.174,2.909,2.909,0,0,0,2.1-1.055A1.382,1.382,0,0,0,120.376,17.34Z" transform="translate(-108.09 -15.997)" fill="#da4453"/>
  <path id="Path_1835" data-name="Path 1835" d="M46,201.426a.667.667,0,0,0-.667-.667H32.667a.667.667,0,0,0-.667.667v7.893a.667.667,0,0,0,.667.666H45.333a.667.667,0,0,0,.667-.666v-7.893Z" transform="translate(-31 -194.985)" fill="#8cc153"/>
  <path id="Path_1836" data-name="Path 1836" d="M16,116a.667.667,0,0,1-.667.667H.667A.667.667,0,0,1,0,116v-3.333A.667.667,0,0,1,.667,112H15.333a.667.667,0,0,1,.667.667V116Z" transform="translate(0 -108.995)" fill="#a0d468"/>
  <rect id="Rectangle_235" data-name="Rectangle 235" width="3.334" height="4.666" transform="translate(6.333 3)" fill="#ed5564"/>
  <path id="Path_1837" data-name="Path 1837" d="M32,262.645l14,1.273v-1.911H32Z" transform="translate(-31 -254.319)" fill="#79a83d"/>
  <rect id="Rectangle_236" data-name="Rectangle 236" width="3.334" height="7.334" transform="translate(6.333 7.667)" fill="#da4453"/>
  <path id="Path_1838" data-name="Path 1838" d="M202.66,263.13l3.334.3v-1.426H202.66Z" transform="translate(-196.327 -254.319)" fill="#c63046"/>
</svg>
