<svg xmlns="http://www.w3.org/2000/svg" width="172.001" height="50" viewBox="0 0 172.001 50">
  <path id="Union_1" data-name="Union 1" d="M14823.179-6465.413a.366.366,0,0,1-.217-.332.358.358,0,0,1,.1-.251.332.332,0,0,1,.247-.1.4.4,0,0,1,.131.021c.017.005.064.021.144.053s.134.051.166.062.086.032.169.059a2.088,2.088,0,0,0,.2.056l.208.045a2.176,2.176,0,0,0,.238.043c.07.011.15.019.241.027s.183.011.273.011a1.874,1.874,0,0,0,1.354-.438,1.666,1.666,0,0,0,.459-1.263v-1.137a1.9,1.9,0,0,1-.717.829,2.067,2.067,0,0,1-1.141.308,2.794,2.794,0,0,1-1.13-.222,2.224,2.224,0,0,1-.832-.6,2.717,2.717,0,0,1-.5-.894,3.414,3.414,0,0,1-.174-1.1,3.685,3.685,0,0,1,.295-1.5,2.482,2.482,0,0,1,.9-1.076,2.449,2.449,0,0,1,1.415-.406,1.992,1.992,0,0,1,1.919,1.1v-.578a.421.421,0,0,1,.161-.308.5.5,0,0,1,.324-.112.509.509,0,0,1,.349.131.456.456,0,0,1,.143.358v5.176a2.271,2.271,0,0,1-.735,1.84,3.041,3.041,0,0,1-2.016.618A4.189,4.189,0,0,1,14823.179-6465.413Zm1.025-6.8a1.756,1.756,0,0,0-.585.805,3.332,3.332,0,0,0-.181,1.129,2.334,2.334,0,0,0,.5,1.619,1.623,1.623,0,0,0,1.259.551,1.5,1.5,0,0,0,1.216-.578,2.468,2.468,0,0,0,.472-1.613,4.022,4.022,0,0,0-.051-.668,2.611,2.611,0,0,0-.177-.6,1.81,1.81,0,0,0-.312-.5,1.351,1.351,0,0,0-.483-.334,1.743,1.743,0,0,0-.665-.123A1.573,1.573,0,0,0,14824.2-6472.215ZM14710.516-6465a9.443,9.443,0,0,0-9.5-9.375,9.443,9.443,0,0,0-9.506,9.375h-6.337a3.148,3.148,0,0,1-3.17-3.125v-43.749a3.148,3.148,0,0,1,3.17-3.127h6.337a9.441,9.441,0,0,0,9.506,9.375,9.439,9.439,0,0,0,9.5-9.375h6.337a3.148,3.148,0,0,1,3.169,3.127v43.749a3.148,3.148,0,0,1-3.169,3.125Zm0-18.481h6.337v-3.125h-6.337Zm-12.674,0h6.337v-3.125h-6.337Zm-12.673,0h6.337v-3.125h-6.337Zm95.391,17.978c-.1-.005-.146-.064-.146-.179a.351.351,0,0,1,0-.07l.486-2.723c.035-.206.174-.313.421-.321h.614c.144.014.213.086.213.22a.512.512,0,0,1-.017.1l-.947,2.723a.316.316,0,0,1-.306.249Zm60.9-2a3.291,3.291,0,0,1-.93-.439.363.363,0,0,1-.171-.31.334.334,0,0,1,.1-.238.339.339,0,0,1,.25-.1.49.49,0,0,1,.265.081,3.218,3.218,0,0,0,1.675.492,1.886,1.886,0,0,0,1.028-.249.812.812,0,0,0,.39-.73.714.714,0,0,0-.221-.551,1.646,1.646,0,0,0-.728-.334l-1.022-.251c-.209-.053-.379-.1-.507-.136s-.266-.088-.416-.15a1.492,1.492,0,0,1-.354-.2,1.486,1.486,0,0,1-.25-.254.961.961,0,0,1-.166-.35,1.86,1.86,0,0,1-.054-.46,1.364,1.364,0,0,1,.185-.714,1.337,1.337,0,0,1,.508-.493,2.589,2.589,0,0,1,.72-.268,4.017,4.017,0,0,1,.866-.091,3.942,3.942,0,0,1,1.056.137,3.945,3.945,0,0,1,.808.3.366.366,0,0,1,.226.34.305.305,0,0,1-.092.225.312.312,0,0,1-.239.1.494.494,0,0,1-.18-.035c-.011,0-.072-.027-.187-.072s-.206-.078-.276-.1-.169-.051-.293-.083a2.537,2.537,0,0,0-.375-.075,2.68,2.68,0,0,0-.387-.027,2.125,2.125,0,0,0-1,.2.656.656,0,0,0-.37.621.57.57,0,0,0,.19.487,2.746,2.746,0,0,0,.821.294l1,.246a2.5,2.5,0,0,1,1.245.61,1.428,1.428,0,0,1,.373,1.02,1.561,1.561,0,0,1-.309.984,1.747,1.747,0,0,1-.813.583,3.44,3.44,0,0,1-1.167.179A3.925,3.925,0,0,1,14841.459-6467.5Zm-82.647,0a3.35,3.35,0,0,1-.929-.439.364.364,0,0,1-.172-.31.334.334,0,0,1,.1-.238.339.339,0,0,1,.25-.1.5.5,0,0,1,.266.081,3.218,3.218,0,0,0,1.678.492,1.876,1.876,0,0,0,1.024-.249.815.815,0,0,0,.393-.73.725.725,0,0,0-.221-.551,1.666,1.666,0,0,0-.729-.334l-1.023-.251c-.209-.053-.378-.1-.507-.136s-.266-.088-.416-.15a1.484,1.484,0,0,1-.354-.2,1.451,1.451,0,0,1-.25-.254,1,1,0,0,1-.167-.35,1.817,1.817,0,0,1-.053-.46,1.364,1.364,0,0,1,.185-.714,1.335,1.335,0,0,1,.507-.493,2.636,2.636,0,0,1,.72-.268,4.024,4.024,0,0,1,.866-.091,3.935,3.935,0,0,1,1.055.137,3.913,3.913,0,0,1,.809.3.366.366,0,0,1,.226.34.3.3,0,0,1-.091.225.313.313,0,0,1-.239.1.491.491,0,0,1-.18-.035c-.011,0-.072-.027-.188-.072s-.206-.078-.276-.1-.169-.051-.292-.083a2.575,2.575,0,0,0-.376-.075,2.651,2.651,0,0,0-.387-.027,2.129,2.129,0,0,0-1,.2.657.657,0,0,0-.371.621.57.57,0,0,0,.19.487,2.744,2.744,0,0,0,.822.294l1,.246a2.5,2.5,0,0,1,1.245.61,1.432,1.432,0,0,1,.373,1.02,1.556,1.556,0,0,1-.31.984,1.745,1.745,0,0,1-.812.583,3.45,3.45,0,0,1-1.168.179A3.93,3.93,0,0,1,14758.812-6467.5Zm43.154-.375a2.208,2.208,0,0,1-.572-1.664v-3.09a.443.443,0,0,1,.158-.364.563.563,0,0,1,.371-.131.549.549,0,0,1,.364.131.439.439,0,0,1,.156.364v3.1a1.636,1.636,0,0,0,.335,1.115,1.208,1.208,0,0,0,.959.383,1.537,1.537,0,0,0,1.132-.468,1.881,1.881,0,0,0,.5-1.281v-2.849a.445.445,0,0,1,.156-.361.556.556,0,0,1,.37-.133.536.536,0,0,1,.361.131.444.444,0,0,1,.15.364v4.719a.433.433,0,0,1-.155.356.552.552,0,0,1-.37.131.561.561,0,0,1-.362-.123.419.419,0,0,1-.15-.348v-.511a1.626,1.626,0,0,1-.725.8,2.353,2.353,0,0,1-1.167.281A2.079,2.079,0,0,1,14801.966-6467.876Zm-6.812-.275a2.983,2.983,0,0,1-.783-2.121,2.993,2.993,0,0,1,.783-2.129,2.768,2.768,0,0,1,2.112-.829,2.777,2.777,0,0,1,2.115.826,2.975,2.975,0,0,1,.784,2.132,2.981,2.981,0,0,1-.781,2.121,2.766,2.766,0,0,1-2.118.829A2.768,2.768,0,0,1,14795.153-6468.152Zm.749-3.772a2.552,2.552,0,0,0-.491,1.651,2.529,2.529,0,0,0,.488,1.634,1.647,1.647,0,0,0,1.355.607,1.687,1.687,0,0,0,1.38-.6,2.532,2.532,0,0,0,.488-1.642,2.534,2.534,0,0,0-.494-1.645,1.657,1.657,0,0,0-1.363-.61A1.67,1.67,0,0,0,14795.9-6471.924Zm-25.611,4.17a1.437,1.437,0,0,1-.567-1.22,2.128,2.128,0,0,1,.07-.572,1.358,1.358,0,0,1,.2-.434,1.042,1.042,0,0,1,.359-.315,2.579,2.579,0,0,1,.507-.211,3.692,3.692,0,0,1,.706-.125c.285-.03.58-.051.88-.062s.669-.016,1.1-.016v-.625a1.143,1.143,0,0,0-.33-.9,1.34,1.34,0,0,0-.921-.294,3.51,3.51,0,0,0-.7.074,4.1,4.1,0,0,0-.556.15c-.135.048-.3.117-.5.206a.331.331,0,0,1-.141.029.345.345,0,0,1-.26-.123.409.409,0,0,1-.11-.273.291.291,0,0,1,.161-.265,4.332,4.332,0,0,1,2.134-.5,2.554,2.554,0,0,1,1.656.487,1.821,1.821,0,0,1,.6,1.5v3.344a.435.435,0,0,1-.158.353.568.568,0,0,1-.368.128.545.545,0,0,1-.354-.123.425.425,0,0,1-.147-.348v-.551a1.836,1.836,0,0,1-1.779,1.118A2.36,2.36,0,0,1,14770.291-6467.753Zm2.082-2.335a6.689,6.689,0,0,0-.8.091,1.334,1.334,0,0,0-.521.195.824.824,0,0,0-.255.313,1.122,1.122,0,0,0-.086.471.91.91,0,0,0,.313.765,1.339,1.339,0,0,0,.849.243,1.528,1.528,0,0,0,1.164-.546,1.954,1.954,0,0,0,.5-1.385v-.171Q14772.823-6470.113,14772.373-6470.088Zm-7.593,2.41a2.563,2.563,0,0,1-1.021-1.027,3.217,3.217,0,0,1-.378-1.586,3.3,3.3,0,0,1,.316-1.455,2.629,2.629,0,0,1,.961-1.073,2.7,2.7,0,0,1,1.5-.412,2.938,2.938,0,0,1,1.184.222,2.016,2.016,0,0,1,.811.618,2.739,2.739,0,0,1,.45.877,3.95,3.95,0,0,1,.167,1.062.407.407,0,0,1-.091.275.343.343,0,0,1-.276.109h-3.967a2.034,2.034,0,0,0,.531,1.493,1.865,1.865,0,0,0,1.336.519,2.217,2.217,0,0,0,.924-.185,4.072,4.072,0,0,0,.826-.5.362.362,0,0,1,.221-.08.3.3,0,0,1,.235.107.363.363,0,0,1,.094.249.427.427,0,0,1-.16.327,3.2,3.2,0,0,1-2.209.813A3,3,0,0,1,14764.78-6467.679Zm.7-4.694a1.51,1.51,0,0,0-.54.417,2.169,2.169,0,0,0-.338.578,2.426,2.426,0,0,0-.15.674h3.4a2.281,2.281,0,0,0-.456-1.313,1.426,1.426,0,0,0-1.187-.511A1.725,1.725,0,0,0,14765.481-6472.373Zm-21.332,4.5a2.222,2.222,0,0,1-.568-1.664v-3.09a.439.439,0,0,1,.155-.364.57.57,0,0,1,.37-.131.561.561,0,0,1,.368.131.448.448,0,0,1,.152.364v3.1a1.636,1.636,0,0,0,.335,1.115,1.209,1.209,0,0,0,.959.383,1.544,1.544,0,0,0,1.136-.468,1.9,1.9,0,0,0,.5-1.281v-2.849a.447.447,0,0,1,.155-.361.557.557,0,0,1,.37-.133.552.552,0,0,1,.365.131.453.453,0,0,1,.15.364v4.719a.433.433,0,0,1-.159.356.543.543,0,0,1-.367.131.571.571,0,0,1-.365-.123.43.43,0,0,1-.149-.348v-.511a1.622,1.622,0,0,1-.723.8,2.354,2.354,0,0,1-1.17.281A2.081,2.081,0,0,1,14744.149-6467.876Zm-6.812-.275a2.981,2.981,0,0,1-.781-2.121,2.991,2.991,0,0,1,.781-2.129,2.768,2.768,0,0,1,2.115-.829,2.772,2.772,0,0,1,2.112.826,2.978,2.978,0,0,1,.783,2.132,2.981,2.981,0,0,1-.781,2.121,2.759,2.759,0,0,1-2.114.829A2.768,2.768,0,0,1,14737.338-6468.152Zm.749-3.772a2.552,2.552,0,0,0-.491,1.651,2.529,2.529,0,0,0,.488,1.634,1.649,1.649,0,0,0,1.355.607,1.68,1.68,0,0,0,1.38-.6,2.52,2.52,0,0,0,.487-1.642,2.523,2.523,0,0,0-.493-1.645,1.658,1.658,0,0,0-1.36-.61A1.669,1.669,0,0,0,14738.087-6471.924Zm100.073,4.58a1.369,1.369,0,0,1-1.058-.428,1.881,1.881,0,0,1-.395-1.316v-3.3h-.7a.412.412,0,0,1-.292-.094.3.3,0,0,1-.1-.246.328.328,0,0,1,.1-.244.416.416,0,0,1,.29-.094h.711l.14-1.629a.444.444,0,0,1,.164-.315.515.515,0,0,1,.338-.131.407.407,0,0,1,.29.107.389.389,0,0,1,.115.305v1.664h1.065a.379.379,0,0,1,.284.1.347.347,0,0,1,.1.254c0,.216-.129.326-.381.326h-1.065v3.125a1.624,1.624,0,0,0,.169.851.583.583,0,0,0,.531.262h.062l.4-.019h.034a.388.388,0,0,1,.3.12.408.408,0,0,1,.11.281.381.381,0,0,1-.065.233.359.359,0,0,1-.192.128,1.145,1.145,0,0,1-.261.051c-.085.008-.2.013-.338.013Zm-60.024,0a1.372,1.372,0,0,1-1.058-.428,1.9,1.9,0,0,1-.392-1.316v-3.3h-.707a.415.415,0,0,1-.292-.094.31.31,0,0,1-.1-.246.326.326,0,0,1,.1-.244.4.4,0,0,1,.289-.094h.712l.136-1.629a.455.455,0,0,1,.167-.315.517.517,0,0,1,.338-.131.412.412,0,0,1,.29.107.4.4,0,0,1,.115.305v1.664h1.063a.387.387,0,0,1,.286.1.354.354,0,0,1,.095.254c0,.216-.126.326-.381.326h-1.063v3.125a1.617,1.617,0,0,0,.167.851.587.587,0,0,0,.531.262h.064l.392-.019h.035a.385.385,0,0,1,.3.12.4.4,0,0,1,.109.281.408.408,0,0,1-.062.233.364.364,0,0,1-.2.128,1.142,1.142,0,0,1-.258.051c-.089.008-.2.013-.341.013Zm55.594-.214a.444.444,0,0,1-.153-.361v-3.186a1.416,1.416,0,0,0-.333-1.022,1.235,1.235,0,0,0-.918-.337,1.664,1.664,0,0,0-1.194.46,1.714,1.714,0,0,0-.485,1.305v2.78a.435.435,0,0,1-.161.361.558.558,0,0,1-.373.134.533.533,0,0,1-.359-.134.444.444,0,0,1-.153-.361v-7.217a.427.427,0,0,1,.156-.351.574.574,0,0,1,.37-.125.572.572,0,0,1,.364.123.422.422,0,0,1,.156.353v2.908a1.629,1.629,0,0,1,.751-.738,2.5,2.5,0,0,1,1.154-.265,2.419,2.419,0,0,1,.792.123,2.01,2.01,0,0,1,.652.377,1.72,1.72,0,0,1,.456.685,2.768,2.768,0,0,1,.163,1v3.13a.437.437,0,0,1-.155.361.552.552,0,0,1-.37.134A.533.533,0,0,1,14833.729-6467.558Zm-13.567,0a.489.489,0,0,1-.15-.385v-4.663a.474.474,0,0,1,.158-.377.559.559,0,0,1,.374-.139.527.527,0,0,1,.361.139.477.477,0,0,1,.153.377v4.663a.483.483,0,0,1-.158.379.548.548,0,0,1-.374.142A.524.524,0,0,1,14820.162-6467.561Zm-4.262.01a.443.443,0,0,1-.15-.355v-4.729a.422.422,0,0,1,.158-.353.565.565,0,0,1,.367-.123.559.559,0,0,1,.368.123.415.415,0,0,1,.153.34l-.006.69a1.713,1.713,0,0,1,.583-.894,1.6,1.6,0,0,1,1.046-.358.344.344,0,0,1,.293.139.5.5,0,0,1,.107.321.462.462,0,0,1-.1.294.343.343,0,0,1-.284.123,1.707,1.707,0,0,0-1.211.4,1.4,1.4,0,0,0-.432,1.073v2.953a.437.437,0,0,1-.158.355.59.59,0,0,1-.373.126A.559.559,0,0,1,14815.9-6467.55Zm-7.569,0a.444.444,0,0,1-.147-.355v-4.729a.421.421,0,0,1,.156-.353.572.572,0,0,1,.37-.123.557.557,0,0,1,.365.123.416.416,0,0,1,.155.34l-.008.69a1.712,1.712,0,0,1,.582-.894,1.6,1.6,0,0,1,1.05-.358.352.352,0,0,1,.293.139.515.515,0,0,1,.1.321.467.467,0,0,1-.1.294.343.343,0,0,1-.284.123,1.707,1.707,0,0,0-1.211.4,1.4,1.4,0,0,0-.43,1.073v2.953a.43.43,0,0,1-.16.355.584.584,0,0,1-.373.126A.561.561,0,0,1,14808.331-6467.55Zm-57.812,0a.443.443,0,0,1-.15-.355v-4.729a.42.42,0,0,1,.155-.353.579.579,0,0,1,.37-.123.564.564,0,0,1,.368.123.411.411,0,0,1,.152.34l0,.69a1.726,1.726,0,0,1,.58-.894,1.606,1.606,0,0,1,1.049-.358.349.349,0,0,1,.293.139.518.518,0,0,1,.107.321.448.448,0,0,1-.1.294.336.336,0,0,1-.284.123,1.711,1.711,0,0,0-1.211.4,1.4,1.4,0,0,0-.43,1.073v2.953a.427.427,0,0,1-.16.355.582.582,0,0,1-.373.126A.551.551,0,0,1,14750.519-6467.55Zm39.237-.026a.515.515,0,0,1-.174-.41v-2.856l-2.611-3.978a.463.463,0,0,1-.08-.262.467.467,0,0,1,.183-.37.625.625,0,0,1,.413-.155.537.537,0,0,1,.472.275l2.279,3.579,2.289-3.6a.52.52,0,0,1,.45-.27.506.506,0,0,1,.344.131.41.41,0,0,1,.148.315.5.5,0,0,1-.087.276l-2.624,4.013v2.9a.506.506,0,0,1-.175.4.622.622,0,0,1-.41.147A.636.636,0,0,1,14789.756-6467.577Zm-57.812,0a.5.5,0,0,1-.174-.41v-2.856l-2.615-3.978a.47.47,0,0,1-.08-.262.475.475,0,0,1,.183-.37.626.626,0,0,1,.413-.155.54.54,0,0,1,.476.275l2.275,3.579,2.29-3.6a.517.517,0,0,1,.45-.27.514.514,0,0,1,.346.131.413.413,0,0,1,.146.315.487.487,0,0,1-.086.276l-2.625,4.013v2.9a.5.5,0,0,1-.174.4.622.622,0,0,1-.408.147A.626.626,0,0,1,14731.943-6467.577Zm88.1-7.046a.6.6,0,0,1-.185-.455.6.6,0,0,1,.188-.46.694.694,0,0,1,.494-.176.681.681,0,0,1,.485.174.609.609,0,0,1,.186.463.6.6,0,0,1-.186.455.68.68,0,0,1-.491.174A.683.683,0,0,1,14820.041-6474.623Zm-28.221-17.462v-1.7h3.165v1.87c0,2.678,1.126,4.25,3.556,4.25s3.556-1.573,3.556-4.25c0-6.634-10.147-7.271-10.147-15.646,0-4.593,2.169-7.442,6.721-7.442,4.6,0,6.766,2.934,6.766,7.442v.808h-3.21v-.979c0-2.678-1.038-4.25-3.468-4.25s-3.47,1.573-3.47,4.208c0,6.677,10.19,7.313,10.19,15.689,0,4.507-2.211,7.441-6.853,7.441S14791.82-6487.577,14791.82-6492.084Zm53.248,7.145v-26.744h-5.594v-3.02H14854v3.02h-5.593v26.744Zm-8.76,0-1.171-5.995h-7.675l-1.171,5.995h-3.121l5.811-29.764h4.9l5.813,29.764Zm-8.411-8.843h6.764l-3.426-17.179Zm-19.47,8.843V-6514.7h12.489v3.02h-9.107v10.162h7.416v2.975h-7.416v10.587h9.107v3.02Zm-40.023,0V-6514.7h7.111c4.727,0,6.9,2.809,6.9,7.4v15.009c0,4.55-2.169,7.356-6.9,7.356Zm3.382-3.02h3.688c2.426,0,3.6-1.487,3.6-4.208v-15.306c0-2.723-1.173-4.21-3.646-4.21h-3.641Zm-10.363,3.02-7.762-24.066v24.066h-3.035V-6514.7h4.294l7.023,21.515V-6514.7h2.992v29.764Zm-17.606,0V-6514.7h3.385v29.764Zm-14.742,0V-6514.7h12.056v3.02h-8.674v10.841h6.983v3.02h-6.983v12.883Z" transform="translate(-14681.999 6515.001)" fill="#fff"/>
</svg>
