<svg xmlns="http://www.w3.org/2000/svg" width="530.001" height="263.698" viewBox="0 0 530.001 263.698">
  <g id="van" transform="translate(-257.362 1895.795)">
    <g id="g12" transform="translate(257.362 -1895.795)">
      <path id="path14" d="M3132.463-1017.665h-16.271V-1048.9h16.271v31.239" transform="translate(-2602.462 1201.09)" fill="#cf423a"/>
      <path id="path16" d="M1122.493-1852.545v-2.2H906.355a18.259,18.259,0,0,1-12.945-5.386,18.266,18.266,0,0,1-5.387-12.945,18.265,18.265,0,0,1,5.387-12.943,18.259,18.259,0,0,1,12.945-5.386h216.138a18.259,18.259,0,0,1,12.945,5.386,18.277,18.277,0,0,1,5.386,12.943,18.279,18.279,0,0,1-5.386,12.945,18.258,18.258,0,0,1-12.945,5.386v4.392a22.78,22.78,0,0,0,22.724-22.724,22.781,22.781,0,0,0-22.724-22.721H906.355a22.78,22.78,0,0,0-22.724,22.721,22.78,22.78,0,0,0,22.724,22.724h216.138v-2.195" transform="translate(-771.091 1895.795)" fill="#161c20"/>
      <path id="path18" d="M1297.344-1852.545v-2.2H1179.3a18.26,18.26,0,0,1-12.945-5.386,18.265,18.265,0,0,1-5.386-12.945,18.264,18.264,0,0,1,5.386-12.943,18.26,18.26,0,0,1,12.945-5.386h118.041a18.249,18.249,0,0,1,12.943,5.386,18.257,18.257,0,0,1,5.386,12.943,18.259,18.259,0,0,1-5.386,12.945,18.249,18.249,0,0,1-12.943,5.386v4.392a22.778,22.778,0,0,0,22.721-22.724,22.779,22.779,0,0,0-22.721-22.721H1179.3a22.78,22.78,0,0,0-22.724,22.721,22.781,22.781,0,0,0,22.724,22.724h118.041v-2.195" transform="translate(-994.99 1895.795)" fill="#161c20"/>
      <path id="path20" d="M1599.25-1842.52h4.392v-41.054h-4.392Z" transform="translate(-1358.113 1885.77)" fill="#161c20"/>
      <path id="path22" d="M353.726-1608.454l450.211,3.067s34.713-3.436,34.914-32.811,1.277-187.637-107.568-178.827l-301.17,10.657a54.106,54.106,0,0,0-46.837,26.447c-31.673,53.135-78.846,171.131-29.55,171.466" transform="translate(-318.88 1831.47)" fill="#e97b25"/>
      <path id="path24" d="M2506.488-1531.877c-6.8-34.073-21.245-77.172-50.814-77.172h-56.44v77.172h107.254" transform="translate(-2014.341 1660.578)" fill="#f9c58f"/>
      <path id="path26" d="M348.431-1196.865c-18.26,48.718-26.357,97.2,5.344,97.419l451.272,3.074s34.8-3.424,35-32.705c.069-10.147.24-35.733-4.1-64.466l-487.507-3.322" transform="translate(-318.878 1322.462)" fill="#eca221"/>
      <path id="path28" d="M1622.526-1455.849h-71.374a28.451,28.451,0,0,1-28.369-28.366,28.452,28.452,0,0,1,28.369-28.368h71.374a28.452,28.452,0,0,1,28.369,28.368,28.451,28.451,0,0,1-28.369,28.366" transform="translate(-1295.388 1581.446)" fill="#f9c58f"/>
      <path id="path30" d="M1586.533-1510.448c0-.721-.065-1.426-.108-2.135h-35.274a28.457,28.457,0,0,0-27.314,20.836c.427.649.865,1.291,1.332,1.907-.63.062-1.241.18-1.862.276a28.129,28.129,0,0,0-.525,5.35,28.451,28.451,0,0,0,28.369,28.366h11.589a33.963,33.963,0,0,0-6.963-20.609,34.163,34.163,0,0,0,30.755-33.991" transform="translate(-1295.387 1581.446)" fill="#cf423a"/>
      <path id="path32" d="M1916.324-1455.848a28.451,28.451,0,0,0,28.369-28.366,28.131,28.131,0,0,0-.527-5.35c-.618-.1-1.229-.213-1.862-.276.47-.616.908-1.258,1.335-1.907a28.457,28.457,0,0,0-27.314-20.835H1881.05c-.046.709-.108,1.414-.108,2.135a34.163,34.163,0,0,0,30.752,33.991,33.978,33.978,0,0,0-6.963,20.609h11.592" transform="translate(-1589.186 1581.446)" fill="#cf423a"/>
      <path id="path34" d="M1612.5-1465.867v-2.2h-71.374a26.083,26.083,0,0,1-18.483-7.69,26.087,26.087,0,0,1-7.691-18.48,26.086,26.086,0,0,1,7.691-18.483,26.075,26.075,0,0,1,18.483-7.689H1612.5a26.079,26.079,0,0,1,18.483,7.689,26.085,26.085,0,0,1,7.689,18.483,26.085,26.085,0,0,1-7.689,18.48,26.087,26.087,0,0,1-18.483,7.69v4.392a30.644,30.644,0,0,0,30.563-30.562A30.642,30.642,0,0,0,1612.5-1524.8h-71.374a30.645,30.645,0,0,0-30.566,30.563,30.647,30.647,0,0,0,30.566,30.562H1612.5v-2.2" transform="translate(-1285.358 1591.464)" fill="#161c20"/>
      <path id="path36" d="M1511.156-1360.391a25.566,25.566,0,0,0,7.253,4.385c4.826,2.092,12.219,4.13,22.582,4.128q2.307,0,4.816-.141l-.252-4.385q-2.386.137-4.564.133c-9.79,0-16.552-1.912-20.838-3.767a27.763,27.763,0,0,1-4.639-2.509c-.484-.333-.829-.6-1.045-.781l-.225-.192-.038-.036,0,0-.927.978.937-.968-.01-.01-.927.978.937-.968-3.055,3.155h0" transform="translate(-1285.85 1459.2)" fill="#161c20"/>
      <path id="path38" d="M2086.1-1363.547l.918.946-.908-.956-.01.01.918.946-.908-.956-.077.07c-.867.74-8.652,7.2-26.71,7.217q-2.182,0-4.564-.133l-.251,4.385q2.5.144,4.816.141c10.363,0,17.754-2.036,22.582-4.128a25.521,25.521,0,0,0,7.25-4.385l-3.055-3.156h0" transform="translate(-1731.557 1459.2)" fill="#161c20"/>
      <path id="path40" d="M695.286-1455.849H623.909a28.451,28.451,0,0,1-28.367-28.366,28.451,28.451,0,0,1,28.367-28.368h71.376a28.451,28.451,0,0,1,28.367,28.368,28.45,28.45,0,0,1-28.367,28.366" transform="translate(-534.772 1581.446)" fill="#f9c58f"/>
      <path id="path42" d="M659.292-1510.448c0-.721-.064-1.426-.109-2.135H623.909a28.455,28.455,0,0,0-27.313,20.836c.426.649.865,1.291,1.334,1.907-.631.062-1.242.18-1.863.276a28.209,28.209,0,0,0-.525,5.35,28.451,28.451,0,0,0,28.367,28.366H635.5a33.967,33.967,0,0,0-6.962-20.609,34.164,34.164,0,0,0,30.754-33.991" transform="translate(-534.772 1581.446)" fill="#cf423a"/>
      <path id="path44" d="M989.083-1455.848a28.45,28.45,0,0,0,28.367-28.366,28.17,28.17,0,0,0-.525-5.35c-.619-.1-1.232-.213-1.861-.276.469-.616.906-1.258,1.334-1.907a28.457,28.457,0,0,0-27.314-20.835H953.808c-.044.709-.107,1.414-.107,2.135a34.162,34.162,0,0,0,30.753,33.991,33.973,33.973,0,0,0-6.961,20.609h11.591" transform="translate(-828.569 1581.446)" fill="#cf423a"/>
      <path id="path46" d="M685.26-1465.867v-2.2H613.884a26.083,26.083,0,0,1-18.481-7.69,26.082,26.082,0,0,1-7.69-18.48,26.081,26.081,0,0,1,7.69-18.483,26.074,26.074,0,0,1,18.481-7.689H685.26a26.074,26.074,0,0,1,18.481,7.689,26.082,26.082,0,0,1,7.69,18.483,26.082,26.082,0,0,1-7.69,18.48,26.082,26.082,0,0,1-18.481,7.69v4.392a30.644,30.644,0,0,0,30.562-30.562A30.641,30.641,0,0,0,685.26-1524.8H613.884a30.642,30.642,0,0,0-30.563,30.563,30.645,30.645,0,0,0,30.563,30.562H685.26v-2.2" transform="translate(-524.747 1591.464)" fill="#161c20"/>
      <path id="path48" d="M583.922-1360.391a25.546,25.546,0,0,0,7.251,4.385c4.828,2.092,12.22,4.13,22.583,4.128q2.308,0,4.816-.141l-.251-4.385q-2.386.137-4.565.133c-9.789,0-16.55-1.912-20.837-3.767a27.669,27.669,0,0,1-4.637-2.509c-.485-.333-.831-.6-1.046-.781l-.224-.192-.04-.036,0,0-.945,1,.955-.987-.009-.01-.945,1,.955-.987-3.055,3.155h0" transform="translate(-525.24 1459.2)" fill="#161c20"/>
      <path id="path50" d="M1158.849-1363.547l.933.966-.924-.975-.01.01.933.966-.924-.975-.078.072c-.866.738-8.65,7.2-26.71,7.215q-2.181,0-4.564-.133l-.251,4.385q2.505.144,4.815.141c10.363,0,17.755-2.036,22.584-4.128a25.564,25.564,0,0,0,7.251-4.385l-3.055-3.156h0" transform="translate(-970.936 1459.2)" fill="#161c20"/>
      <path id="path52" d="M1584.321-1436.064v-2.2H1426.682v-178.623h155.444v180.82h2.195v0h2.2v-185.212H1422.29v187.407h164.228v-2.195h-2.2" transform="translate(-1212.953 1670.607)" fill="#161c20"/>
      <path id="path54" d="M1582.126-651.705v21.027H1426.682v-21.027h-4.392v25.419h164.228v-25.419h-4.392" transform="translate(-1212.953 875.267)" fill="#161c20"/>
      <path id="path56" d="M2183.489-1068.478H2166.1v-10.981h17.388v10.981" transform="translate(-1823.102 1226.154)" fill="#fff"/>
      <path id="path58" d="M2135.555-1056.732h14.184v-4.392h-14.184Z" transform="translate(-1798.045 1211.114)" fill="#161c20"/>
      <path id="path60" d="M863.514-834.927a40.136,40.136,0,0,1-40.136,40.135,40.136,40.136,0,0,1-40.136-40.135,40.137,40.137,0,0,1,40.136-40.138,40.137,40.137,0,0,1,40.136,40.138" transform="translate(-688.742 1058.489)" fill="#161c20"/>
      <path id="path62" d="M913.732-767.8h-2.2a20.964,20.964,0,0,1-6.163,14.877,20.956,20.956,0,0,1-14.878,6.162,20.956,20.956,0,0,1-14.878-6.162,20.963,20.963,0,0,1-6.163-14.877,20.968,20.968,0,0,1,6.163-14.879,20.956,20.956,0,0,1,14.878-6.162,20.957,20.957,0,0,1,14.878,6.162,20.969,20.969,0,0,1,6.163,14.879h4.392a25.435,25.435,0,0,0-25.433-25.433A25.434,25.434,0,0,0,865.062-767.8a25.432,25.432,0,0,0,25.433,25.431A25.433,25.433,0,0,0,915.927-767.8h-2.2" transform="translate(-755.859 991.367)" fill="#fff"/>
      <path id="path64" d="M2479.5-834.927a40.136,40.136,0,0,1-40.135,40.135,40.136,40.136,0,0,1-40.135-40.135,40.137,40.137,0,0,1,40.135-40.138,40.137,40.137,0,0,1,40.135,40.138" transform="translate(-2014.341 1058.489)" fill="#161c20"/>
      <path id="path66" d="M2529.717-767.8h-2.195a20.965,20.965,0,0,1-6.165,14.877,20.953,20.953,0,0,1-14.877,6.162,20.959,20.959,0,0,1-14.879-6.162,20.973,20.973,0,0,1-6.162-14.877,20.978,20.978,0,0,1,6.162-14.879,20.958,20.958,0,0,1,14.879-6.162,20.953,20.953,0,0,1,14.877,6.162,20.972,20.972,0,0,1,6.165,14.879h4.389a25.433,25.433,0,0,0-25.431-25.433,25.435,25.435,0,0,0-25.433,25.433,25.433,25.433,0,0,0,25.433,25.431,25.431,25.431,0,0,0,25.431-25.431h-2.195" transform="translate(-2081.452 991.367)" fill="#fff"/>
      <path id="path68" d="M345.08-671.811H257.362v-11.28H345.08v11.28" transform="translate(-257.362 901.014)" fill="#161c20"/>
      <path id="path70" d="M2927.02-671.811H2870.7v-11.28h56.32v11.28" transform="translate(-2401.084 901.014)" fill="#161c20"/>
      <path id="path72" d="M2445.644-1619.079v-2.2h-58.637v136.291h17.184l.544-.35a45.266,45.266,0,0,1,24.6-7.231,45.535,45.535,0,0,1,42.742,29.825l.527,1.44h31.672v-39.991l0-.069c-.009-.082-1.893-29.636-9.958-59.364-4.042-14.871-9.61-29.79-17.419-41.181a50.906,50.906,0,0,0-13.583-13.942,31.606,31.606,0,0,0-17.673-5.427v4.392a27.18,27.18,0,0,1,15.253,4.7c8.014,5.264,14.642,14.793,19.889,26.224,7.89,17.136,12.7,38.411,15.5,55.353,1.4,8.472,2.3,15.866,2.856,21.135.276,2.634.465,4.737.585,6.179.057.721.1,1.275.127,1.648s.041.558.041.561l2.19-.141h-2.194v35.53h-25.748v2.195l2.063-.757a49.931,49.931,0,0,0-46.865-32.7,49.664,49.664,0,0,0-26.984,7.931l1.191,1.845v-2.195H2391.4v-127.507h54.245v-2.195" transform="translate(-2004.311 1670.607)" fill="#161c20"/>
      <path id="path74" d="M2399.234-1187.425h107.254v-4.392H2399.234Z" transform="translate(-2014.341 1318.322)" fill="#161c20"/>
      <path id="path76" d="M2470.94-1068.478h17.385v-10.981H2470.94v10.981" transform="translate(-2073.162 1226.154)" fill="#fff"/>
      <path id="path78" d="M2519.314-1056.732H2533.5v-4.392h-14.184Z" transform="translate(-2112.843 1211.114)" fill="#161c20"/>
      <path id="path80" d="M2950.684-1521.487h0c-3.846-25.428-11.232-53.313-25.359-75.162l-14.958.973c22.93,21.451,28.848,74.19,28.848,74.19h11.469" transform="translate(-2433.623 1650.406)" fill="#f9c58f"/>
      <path id="path82" d="M2915.158-1608.871l-14.96.973a2.2,2.2,0,0,0-1.924,1.452,2.195,2.195,0,0,0,.568,2.343c5.441,5.084,10,12.179,13.7,19.98,5.556,11.7,9.2,24.954,11.422,35.253,1.114,5.15,1.878,9.563,2.36,12.682.242,1.559.415,2.8.527,3.638.055.421.1.745.122.96s.036.318.036.319a2.194,2.194,0,0,0,2.183,1.951h11.47a2.214,2.214,0,0,0,1.552-.643,2.209,2.209,0,0,0,.645-1.553h0a2.2,2.2,0,0,0-2.2-2.2,2.2,2.2,0,0,0-2.2,2.2h2.2v-2.2h-11.47v2.2l2.183-.245a214.534,214.534,0,0,0-5.889-29.387,152.859,152.859,0,0,0-8.975-24.858c-3.86-8.12-8.642-15.663-14.666-21.3l-1.5,1.6.141,2.192,14.961-.975a2.2,2.2,0,0,0,2.049-2.334,2.2,2.2,0,0,0-2.334-2.049h0" transform="translate(-2423.598 1660.435)" fill="#161c20"/>
    </g>
  </g>
</svg>
