<svg xmlns="http://www.w3.org/2000/svg" width="106.781" height="82.799" viewBox="0 0 106.781 82.799">
  <g id="vespa" transform="translate(0 -55.7)">
    <path id="Path_1877" data-name="Path 1877" d="M81.137,246.6a46.021,46.021,0,0,0,1.895-9.473c.517-6.028-28.59-4.478-42.713-4.478S31.88,236.61,31.88,245.91s11.367,16.878,25.49,16.878A27.217,27.217,0,0,0,69.6,260.2c.689,3.272,4.995,4.133,9.128,4.133,4.478,0-.517-3.445-.517-7.406C78.382,254.521,80.276,249.871,81.137,246.6Z" transform="translate(-24.13 -138.714)" fill="#ff9d00"/>
    <g id="Group_488" data-name="Group 488" transform="translate(0.861 84.462)">
      <path id="Path_1878" data-name="Path 1878" d="M76.721,247.236a36.885,36.885,0,0,0,1.895-9.473c.517-6.028-24.973-4.822-39.1-4.822S31.08,236.9,31.08,246.2s11.367,16.878,25.49,16.878A27.217,27.217,0,0,0,68.8,260.5c.689,3.272,4.995,4.134,9.128,4.134,4.478,0-.517-3.445-.517-7.406C77.754,254.814,75.859,250.336,76.721,247.236Z" transform="translate(-24.363 -223.469)" fill="#ff8500"/>
      <path id="Path_1879" data-name="Path 1879" d="M371.1,198.773a1.544,1.544,0,0,1-1.55,1.55h0a1.544,1.544,0,0,1-1.55-1.55V190.85a1.544,1.544,0,0,1,1.55-1.55h0a1.544,1.544,0,0,1,1.55,1.55Z" transform="translate(-289.636 -189.3)" fill="#ff8500"/>
      <path id="Path_1880" data-name="Path 1880" d="M21.4,287.573c0,5.167-3.272,9.473-7.061,9.473H11.061C7.1,297.045,4,292.739,4,287.573H4c0-5.167,3.272-9.472,7.061-9.472h3.1c3.961,0,7.234,4.306,7.234,9.472Z" transform="translate(-4 -258.983)" fill="#ff8500"/>
    </g>
    <path id="Path_1881" data-name="Path 1881" d="M403.656,338.328A12.228,12.228,0,1,1,391.428,326.1,12.275,12.275,0,0,1,403.656,338.328Z" transform="translate(-297.564 -212.187)" fill="#203547"/>
    <path id="Path_1882" data-name="Path 1882" d="M414.023,342.9A12.178,12.178,0,0,1,396.8,360.123" transform="translate(-311.375 -225.37)" fill="#122130"/>
    <circle id="Ellipse_17" data-name="Ellipse 17" cx="7.75" cy="7.75" r="7.75" transform="translate(86.114 118.391)" fill="#ffa300"/>
    <path id="Path_1883" data-name="Path 1883" d="M422.05,358.1a7.672,7.672,0,1,1-10.85,10.85" transform="translate(-322.675 -237.298)" fill="#ff8500"/>
    <circle id="Ellipse_18" data-name="Ellipse 18" cx="6.717" cy="6.717" r="6.717" transform="translate(87.147 119.424)" fill="#ced8dd"/>
    <path id="Path_1884" data-name="Path 1884" d="M423.873,361.3a6.7,6.7,0,0,1-9.473,9.473" transform="translate(-325.186 -239.809)" fill="#b2bbc1"/>
    <path id="Path_1885" data-name="Path 1885" d="M428.6,371.6c0,1.722-1.378,3.617-3.1,3.617s-3.1-1.894-3.1-3.617a3.087,3.087,0,0,1,3.1-3.1A3.2,3.2,0,0,1,428.6,371.6Z" transform="translate(-331.464 -245.459)" fill="#888f91" opacity="0.2"/>
    <circle id="Ellipse_19" data-name="Ellipse 19" cx="3.1" cy="3.1" r="3.1" transform="translate(90.764 123.041)" fill="#e7eff2"/>
    <path id="Path_1886" data-name="Path 1886" d="M436,368.5a3.1,3.1,0,0,1,0,6.2" transform="translate(-342.136 -245.459)" fill="#dae6ea"/>
    <path id="Path_1887" data-name="Path 1887" d="M432.861,351.7H432c.172,1.033.517,1.722.861,1.722s.861-.689.861-1.722Z" transform="translate(-338.997 -232.276)" fill="#666e70"/>
    <path id="Path_1888" data-name="Path 1888" d="M436,353.422c.344,0,.861-.689.861-1.722H436" transform="translate(-342.136 -232.276)" fill="#535a5b"/>
    <path id="Path_1889" data-name="Path 1889" d="M432,407.822h1.722c-.172-1.033-.517-1.722-.861-1.722S432.172,406.789,432,407.822Z" transform="translate(-338.997 -274.964)" fill="#666e70"/>
    <path id="Path_1890" data-name="Path 1890" d="M437.661,407.822c-.172-1.033-.517-1.722-.861-1.722" transform="translate(-342.764 -274.964)" fill="#535a5b"/>
    <path id="Path_1891" data-name="Path 1891" d="M411.2,359.478c.861.517,1.55.861,1.895.517s0-1.033-.517-1.895A5.245,5.245,0,0,0,411.2,359.478Z" transform="translate(-322.675 -237.298)" fill="#666e70"/>
    <path id="Path_1892" data-name="Path 1892" d="M418.117,359.995c.344-.344,0-1.033-.517-1.895" transform="translate(-327.697 -237.298)" fill="#535a5b"/>
    <path id="Path_1893" data-name="Path 1893" d="M407.861,344.533a1.43,1.43,0,0,1-.344,2.067h0a1.43,1.43,0,0,1-2.067-.344l-6.545-8.784a1.43,1.43,0,0,1,.344-2.067h0a1.43,1.43,0,0,1,2.067.344Z" transform="translate(-312.791 -219.253)" fill="#b2bbc1"/>
    <path id="Path_1894" data-name="Path 1894" d="M454.017,399.711c-.689-.517-1.55-.861-1.722-.517-.344.344,0,1.033.517,1.722.172-.172.517-.345.689-.517S453.845,399.884,454.017,399.711Z" transform="translate(-354.814 -269.437)" fill="#666e70"/>
    <path id="Path_1895" data-name="Path 1895" d="M454.006,400.4c.172-.172.344-.517.517-.689-.689-.517-1.55-.861-1.722-.517" transform="translate(-355.319 -269.437)" fill="#535a5b"/>
    <path id="Path_1896" data-name="Path 1896" d="M405.129,380.622c1.033-.172,1.722-.517,1.722-.861s-.689-.861-1.722-.861v.861A.769.769,0,0,0,405.129,380.622Z" transform="translate(-317.81 -253.62)" fill="#666e70"/>
    <path id="Path_1897" data-name="Path 1897" d="M406.522,379.761c0-.344-.689-.861-1.722-.861v.861" transform="translate(-317.653 -253.62)" fill="#535a5b"/>
    <path id="Path_1898" data-name="Path 1898" d="M459.2,379.761c0,.344.689.689,1.722.861V378.9C459.889,379.072,459.2,379.417,459.2,379.761Z" transform="translate(-360.341 -253.62)" fill="#666e70"/>
    <path id="Path_1899" data-name="Path 1899" d="M460.922,378.9c-1.033.172-1.722.517-1.722.861" transform="translate(-360.341 -253.62)" fill="#535a5b"/>
    <path id="Path_1900" data-name="Path 1900" d="M411.2,399.362a7.959,7.959,0,0,0,1.206,1.206c.517-.689.861-1.55.517-1.894C412.75,398.5,412.061,398.674,411.2,399.362Z" transform="translate(-322.675 -269.088)" fill="#666e70"/>
    <path id="Path_1901" data-name="Path 1901" d="M417.6,400.795c.517-.689.861-1.55.517-1.895" transform="translate(-327.697 -269.314)" fill="#535a5b"/>
    <path id="Path_1902" data-name="Path 1902" d="M452.811,358.1c-.517.689-.861,1.55-.517,1.895s1.033,0,1.895-.517A10.407,10.407,0,0,0,452.811,358.1Z" transform="translate(-354.814 -237.298)" fill="#666e70"/>
    <path id="Path_1903" data-name="Path 1903" d="M452.811,358.1c-.517.689-.861,1.55-.517,1.895" transform="translate(-354.814 -237.298)" fill="#535a5b"/>
    <path id="Path_1904" data-name="Path 1904" d="M58.1,377.189a.741.741,0,0,1-.689.689H24.689a.741.741,0,0,1-.689-.689h0a.741.741,0,0,1,.689-.689h32.9c.344,0,.517.344.517.689Z" transform="translate(-18.833 -251.737)"/>
    <path id="Path_1905" data-name="Path 1905" d="M36.8,324.567a14.467,14.467,0,0,1,28.934,0" transform="translate(-28.878 -199.632)"/>
    <path id="Path_1906" data-name="Path 1906" d="M63.568,322.684H62.362a13.778,13.778,0,1,0-27.556,0H33.6a14.984,14.984,0,0,1,29.968,0Z" transform="translate(-26.366 -197.748)" fill="#8e8e8e"/>
    <circle id="Ellipse_20" data-name="Ellipse 20" cx="12.917" cy="12.917" r="12.917" transform="translate(9.3 112.535)" fill="#203547"/>
    <path id="Path_1907" data-name="Path 1907" d="M78.428,337.3A13.031,13.031,0,1,1,60,355.728" transform="translate(-47.083 -220.976)" fill="#122130"/>
    <circle id="Ellipse_21" data-name="Ellipse 21" cx="8.095" cy="8.095" r="8.095" transform="translate(14.123 117.358)" fill="#ffa300"/>
    <path id="Path_1908" data-name="Path 1908" d="M88.339,352.5A8.159,8.159,0,1,1,76.8,364.039" transform="translate(-60.266 -232.903)" fill="#ff8500"/>
    <circle id="Ellipse_22" data-name="Ellipse 22" cx="7.061" cy="7.061" r="7.061" transform="translate(15.156 118.391)" fill="#ced8dd"/>
    <path id="Path_1909" data-name="Path 1909" d="M89.361,356.5A7.185,7.185,0,1,1,79.2,366.661" transform="translate(-62.149 -236.042)" fill="#b2bbc1"/>
    <path id="Path_1910" data-name="Path 1910" d="M94.545,367.772c0,1.895-1.55,3.789-3.272,3.789-1.895,0-3.272-2.067-3.272-3.789a3.27,3.27,0,0,1,3.272-3.272A3.167,3.167,0,0,1,94.545,367.772Z" transform="translate(-69.055 -242.32)" fill="#888f91" opacity="0.2"/>
    <path id="Path_1911" data-name="Path 1911" d="M94.545,367.772a3.272,3.272,0,1,1-3.272-3.272A3.167,3.167,0,0,1,94.545,367.772Z" transform="translate(-69.055 -242.32)" fill="#e7eff2"/>
    <path id="Path_1912" data-name="Path 1912" d="M103.2,364.5a3.272,3.272,0,1,1,0,6.545" transform="translate(-80.983 -242.32)" fill="#dae6ea"/>
    <path id="Path_1913" data-name="Path 1913" d="M99.433,346.1H98.4c.172,1.033.517,1.722,1.033,1.722s.861-.689,1.033-1.722C100.122,346.272,99.778,346.1,99.433,346.1Z" transform="translate(-77.216 -227.881)" fill="#666e70"/>
    <path id="Path_1914" data-name="Path 1914" d="M103.2,348.622c.517,0,.861-.689,1.033-1.722H103.2" transform="translate(-80.983 -228.509)" fill="#535a5b"/>
    <path id="Path_1915" data-name="Path 1915" d="M99.2,406.222h1.894c-.172-1.033-.517-1.722-1.033-1.722S99.2,405.189,99.2,406.222Z" transform="translate(-77.844 -273.709)" fill="#666e70"/>
    <path id="Path_1916" data-name="Path 1916" d="M104.233,406.222c-.172-1.033-.517-1.722-1.033-1.722" transform="translate(-80.983 -273.709)" fill="#535a5b"/>
    <path id="Path_1917" data-name="Path 1917" d="M76.8,354.678c.861.689,1.55.861,1.895.517s0-1.033-.517-1.895A5.242,5.242,0,0,0,76.8,354.678Z" transform="translate(-60.266 -233.531)" fill="#666e70"/>
    <path id="Path_1918" data-name="Path 1918" d="M83.717,355.195c.344-.345,0-1.033-.517-1.895" transform="translate(-65.288 -233.531)" fill="#535a5b"/>
    <path id="Path_1919" data-name="Path 1919" d="M122.189,397.189c-.861-.689-1.55-.861-1.895-.517s0,1.033.517,1.895c.172-.172.517-.344.689-.689C121.845,397.706,122.017,397.361,122.189,397.189Z" transform="translate(-94.288 -267.431)" fill="#666e70"/>
    <path id="Path_1920" data-name="Path 1920" d="M122.006,397.878c.172-.172.344-.517.689-.689-.861-.689-1.55-.861-1.895-.517" transform="translate(-94.794 -267.431)" fill="#535a5b"/>
    <path id="Path_1921" data-name="Path 1921" d="M70.4,376.167c1.033-.172,1.722-.517,1.722-1.033s-.689-.861-1.722-1.033v2.067Z" transform="translate(-55.244 -249.853)" fill="#666e70"/>
    <path id="Path_1922" data-name="Path 1922" d="M72.122,375.933c0-.517-.689-.861-1.722-1.033v1.033" transform="translate(-55.244 -250.481)" fill="#535a5b"/>
    <path id="Path_1923" data-name="Path 1923" d="M128,376.561c0,.517.689.861,1.722,1.033a3.538,3.538,0,0,0,0-1.895C128.689,375.7,128,376.044,128,376.561Z" transform="translate(-100.444 -251.109)" fill="#666e70"/>
    <path id="Path_1924" data-name="Path 1924" d="M129.722,374.9c-1.033.172-1.722.517-1.722,1.033" transform="translate(-100.444 -250.481)" fill="#535a5b"/>
    <path id="Path_1925" data-name="Path 1925" d="M76.8,397.189a5.242,5.242,0,0,0,1.378,1.378c.689-.861.861-1.55.517-1.895S77.661,396.5,76.8,397.189Z" transform="translate(-60.266 -267.431)" fill="#666e70"/>
    <path id="Path_1926" data-name="Path 1926" d="M83.2,399.195c.689-.861.861-1.55.517-1.894" transform="translate(-65.288 -268.059)" fill="#535a5b"/>
    <path id="Path_1927" data-name="Path 1927" d="M120.689,353.3c-.689.861-.861,1.55-.517,1.895s1.033,0,1.895-.517A5.242,5.242,0,0,0,120.689,353.3Z" transform="translate(-94.166 -233.531)" fill="#666e70"/>
    <path id="Path_1928" data-name="Path 1928" d="M120.689,353.3c-.689.861-.861,1.55-.517,1.895" transform="translate(-94.166 -233.531)" fill="#535a5b"/>
    <path id="Path_1929" data-name="Path 1929" d="M390.134,299.262c-1.55-7.922-16.017-16.362-24.284-16.362-8.439,0-2.756,8.439-4.306,16.362Z" transform="translate(-283.353 -178.287)" fill="#ff9d00"/>
    <path id="Path_1930" data-name="Path 1930" d="M371.962,300.517c-1.55-8.267-11.195-16.017-19.634-16.017s-7.406,7.75-9.128,16.017Z" transform="translate(-269.314 -179.543)" fill="#ff8500"/>
    <path id="Path_1931" data-name="Path 1931" d="M82.513,195.745a1.911,1.911,0,0,1-1.895,1.895H35.495a1.911,1.911,0,0,1-1.895-1.895v-7.75a1.911,1.911,0,0,1,1.895-1.895l37.2,1.895c1.033,0,9.817-1.033,9.817,0v7.75Z" transform="translate(-26.366 -102.327)" fill="#8c5218"/>
    <path id="Path_1932" data-name="Path 1932" d="M82.513,201.6a1.911,1.911,0,0,1-1.895,1.895H35.495A1.911,1.911,0,0,1,33.6,201.6l1.378-4.65a1.911,1.911,0,0,1,1.895-1.895L72.7,194.026c1.033,0,9.817-1.033,9.817,0Z" transform="translate(-26.366 -108.186)" fill="#6b3e15"/>
    <path id="Path_1933" data-name="Path 1933" d="M345.162,233.206c0,1.206-8.439,19.634-9.645,19.634h-4.478A2.28,2.28,0,0,1,328.8,250.6l4.306-24.8c0-1.206,2.411-9.3,3.617-9.3h3.1a2.28,2.28,0,0,1,2.239,2.239Z" transform="translate(-258.014 -126.182)" fill="#ff8500"/>
    <path id="Path_1934" data-name="Path 1934" d="M346.1,216.5H343c-.344,0-.517.344-.861,1.033a2.489,2.489,0,0,1,.344,1.206L339.728,250.6c0,1.033-1.55,1.895-2.928,2.067.172,0,.344.172.517.172h4.478c1.206,0,3.617-1.033,3.617-2.239l2.756-31.862A2.136,2.136,0,0,0,346.1,216.5Z" transform="translate(-264.292 -126.182)" fill="#ff9d00"/>
    <path id="Path_1935" data-name="Path 1935" d="M52.163,300.256C49.924,289.234,36.49,278.9,24.778,278.9S7.039,289.234,4.8,300.256Z" transform="translate(-3.767 -175.148)" fill="#ffb000"/>
    <g id="Group_489" data-name="Group 489" transform="translate(0 73.439)">
      <path id="Path_1936" data-name="Path 1936" d="M51.535,308.417C49.3,297.395,35.862,289.3,24.151,289.3S6.239,297.222,4,308.417Z" transform="translate(-3.139 -256.749)" fill="#ff9d00"/>
      <path id="Path_1937" data-name="Path 1937" d="M76.125,369.139a1.726,1.726,0,0,1-1.722,1.722H1.722A1.726,1.726,0,0,1,0,369.139v-.517A1.726,1.726,0,0,1,1.722,366.9H74.575a1.726,1.726,0,0,1,1.722,1.722v.517Z" transform="translate(0 -317.643)" fill="#ff9d00"/>
      <path id="Path_1938" data-name="Path 1938" d="M355.317,138.272a10.591,10.591,0,0,0-2.411-.172c-5.856,0-10.506,3.272-10.506,7.406s4.65,7.406,10.506,7.406a11.371,11.371,0,0,0,2.411-.172Z" transform="translate(-268.686 -138.1)" fill="#ff9d00"/>
    </g>
    <path id="Path_1939" data-name="Path 1939" d="M396.356,151.989a1.482,1.482,0,0,1-1.378,1.378h0a1.482,1.482,0,0,1-1.378-1.378V140.278a1.482,1.482,0,0,1,1.378-1.378h0a1.482,1.482,0,0,1,1.378,1.378Z" transform="translate(-308.864 -65.288)" fill="#ff8500"/>
    <g id="Group_490" data-name="Group 490" transform="translate(16.706 113.052)">
      <path id="Path_1940" data-name="Path 1940" d="M85.867,322.617a.457.457,0,0,1-.517.517H78.117a.457.457,0,0,1-.517-.517h0a.457.457,0,0,1,.517-.517H85.35a.55.55,0,0,1,.517.517Z" transform="translate(-77.6 -322.1)" fill="#ffb000"/>
      <path id="Path_1941" data-name="Path 1941" d="M85.867,336.217a.457.457,0,0,1-.517.517H78.117a.457.457,0,0,1-.517-.517h0a.457.457,0,0,1,.517-.517H85.35a.55.55,0,0,1,.517.517Z" transform="translate(-77.6 -332.772)" fill="#ffb000"/>
      <path id="Path_1942" data-name="Path 1942" d="M85.867,349.817a.457.457,0,0,1-.517.517H78.117a.457.457,0,0,1-.517-.517h0a.457.457,0,0,1,.517-.517H85.35a.55.55,0,0,1,.517.517Z" transform="translate(-77.6 -343.444)" fill="#ffb000"/>
    </g>
    <circle id="Ellipse_23" data-name="Ellipse 23" cx="3.617" cy="3.617" r="3.617" transform="translate(68.891 75.334)" fill="#6b3e15"/>
    <circle id="Ellipse_24" data-name="Ellipse 24" cx="2.756" cy="2.756" r="2.756" transform="translate(68.03 76.195)" fill="#824c20"/>
    <path id="Path_1943" data-name="Path 1943" d="M345.071,100.41a1.177,1.177,0,0,1-1.206-1.206V92.488l-4.478-4.478a1.218,1.218,0,0,1,1.722-1.722l4.822,4.822a1.316,1.316,0,0,1,.344.861V99.2A1.177,1.177,0,0,1,345.071,100.41Z" transform="translate(-266.018 -23.698)" fill="#768689"/>
    <path id="Path_1944" data-name="Path 1944" d="M327.2,55.7V66.206a5.385,5.385,0,0,0,4.133-5.339A5.031,5.031,0,0,0,327.2,55.7Z" transform="translate(-256.759 0)" fill="#ff9d00"/>
  </g>
</svg>
